<svg width="30" height="30" viewBox="0 0 30 30" fill="none" xmlns="http://www.w3.org/2000/svg">
<g id="phone">
<path id="Vector" d="M27.4999 21.1501V24.9001C27.5013 25.2482 27.43 25.5928 27.2906 25.9118C27.1511 26.2308 26.9465 26.5171 26.69 26.7525C26.4335 26.9878 26.1306 27.167 25.8009 27.2785C25.4711 27.39 25.1216 27.4315 24.7749 27.4001C20.9285 26.9822 17.2337 25.6678 13.9874 23.5626C10.9672 21.6435 8.40659 19.0828 6.48742 16.0626C4.37489 12.8016 3.06022 9.08886 2.64992 5.22512C2.61868 4.87945 2.65976 4.53107 2.77054 4.20215C2.88132 3.87323 3.05938 3.57098 3.29337 3.31465C3.52737 3.05831 3.81217 2.85351 4.12966 2.71327C4.44714 2.57304 4.79034 2.50045 5.13742 2.50012H8.88742C9.49405 2.49415 10.0822 2.70897 10.5421 3.10454C11.0021 3.5001 11.3025 4.04943 11.3874 4.65012C11.5457 5.8502 11.8392 7.02853 12.2624 8.16262C12.4306 8.61003 12.467 9.09626 12.3673 9.56372C12.2676 10.0312 12.036 10.4603 11.6999 10.8001L10.1124 12.3876C11.8919 15.5171 14.483 18.1082 17.6124 19.8876L19.1999 18.3001C19.5398 17.964 19.9689 17.7324 20.4363 17.6327C20.9038 17.533 21.39 17.5694 21.8374 17.7376C22.9715 18.1608 24.1498 18.4543 25.3499 18.6126C25.9571 18.6983 26.5117 19.0041 26.9081 19.472C27.3045 19.9399 27.5151 20.5371 27.4999 21.1501Z" stroke="white" stroke-width="2" stroke-linecap="round" stroke-linejoin="round"/>
</g>
</svg>
