<svg width="25" height="27" viewBox="0 0 25 27" fill="none" xmlns="http://www.w3.org/2000/svg">
<g id="pepicons-pencil:cv">
<g id="Group">
<path id="Vector" d="M8.22141 16.7333C8.05889 16.7333 7.90303 16.6659 7.78812 16.5459C7.6732 16.4259 7.60864 16.2631 7.60864 16.0933C7.60864 15.9236 7.6732 15.7608 7.78812 15.6408C7.90303 15.5208 8.05889 15.4533 8.22141 15.4533H16.8001C16.9626 15.4533 17.1185 15.5208 17.2334 15.6408C17.3483 15.7608 17.4129 15.9236 17.4129 16.0933C17.4129 16.2631 17.3483 16.4259 17.2334 16.5459C17.1185 16.6659 16.9626 16.7333 16.8001 16.7333H8.22141ZM8.22141 19.9333C8.05889 19.9333 7.90303 19.8659 7.78812 19.7459C7.6732 19.6259 7.60864 19.4631 7.60864 19.2933C7.60864 19.1236 7.6732 18.9608 7.78812 18.8408C7.90303 18.7208 8.05889 18.6533 8.22141 18.6533H16.8001C16.9626 18.6533 17.1185 18.7208 17.2334 18.8408C17.3483 18.9608 17.4129 19.1236 17.4129 19.2933C17.4129 19.4631 17.3483 19.6259 17.2334 19.7459C17.1185 19.8659 16.9626 19.9333 16.8001 19.9333H8.22141Z" fill="#007871"/>
<path id="Vector_2" fill-rule="evenodd" clip-rule="evenodd" d="M13.963 2.01334H5.7703C5.28276 2.01334 4.81518 2.21562 4.47043 2.57569C4.12568 2.93576 3.93201 3.42412 3.93201 3.93334V23.1333C3.93201 23.6426 4.12568 24.1309 4.47043 24.491C4.81518 24.8511 5.28276 25.0533 5.7703 25.0533H19.2512C19.7387 25.0533 20.2063 24.8511 20.551 24.491C20.8958 24.1309 21.0895 23.6426 21.0895 23.1333V9.9519C21.0893 9.47122 20.9166 9.00808 20.6054 8.65398L15.3184 2.63542C15.1461 2.43925 14.9367 2.28265 14.7033 2.17556C14.47 2.06846 14.2179 2.01322 13.963 2.01334ZM5.15754 3.93334C5.15754 3.7636 5.2221 3.60081 5.33701 3.48079C5.45193 3.36076 5.60779 3.29334 5.7703 3.29334H13.963C14.048 3.29324 14.1321 3.31162 14.21 3.34732C14.2878 3.38302 14.3577 3.43525 14.4152 3.5007L19.7022 9.51926C19.806 9.63722 19.8638 9.79161 19.8639 9.9519V23.1333C19.8639 23.3031 19.7994 23.4659 19.6844 23.5859C19.5695 23.7059 19.4137 23.7733 19.2512 23.7733H5.7703C5.60779 23.7733 5.45193 23.7059 5.33701 23.5859C5.2221 23.4659 5.15754 23.3031 5.15754 23.1333V3.93334Z" fill="#007871"/>
<path id="Vector_3" d="M14.349 3.42133V9.43733H20.109" stroke="#007871" stroke-linecap="round" stroke-linejoin="round"/>
<path id="Vector_4" d="M10.2239 8.58357C10.3989 8.58917 10.5732 8.558 10.7365 8.49192C10.8997 8.42583 11.0486 8.32618 11.1743 8.19886C11.3 8.07154 11.3999 7.91916 11.4682 7.75075C11.5364 7.58234 11.5716 7.40133 11.5716 7.21845C11.5716 7.03558 11.5364 6.85457 11.4682 6.68616C11.3999 6.51774 11.3 6.36536 11.1743 6.23804C11.0486 6.11073 10.8997 6.01107 10.7365 5.94499C10.5732 5.8789 10.3989 5.84773 10.2239 5.85333C9.8842 5.8642 9.56188 6.01279 9.32525 6.26761C9.08863 6.52243 8.9563 6.86347 8.9563 7.21845C8.9563 7.57344 9.08863 7.91447 9.32525 8.16929C9.56188 8.42412 9.8842 8.57271 10.2239 8.58357Z" fill="#007871"/>
<path id="Vector_5" fill-rule="evenodd" clip-rule="evenodd" d="M12.8368 11.5416C12.8368 10.0901 11.6664 9.03925 10.2227 9.03925C8.77903 9.03925 7.60864 10.0888 7.60864 11.5416V12.2252C7.60897 12.3458 7.65508 12.4614 7.73686 12.5466C7.81865 12.6317 7.92943 12.6796 8.04493 12.6796H12.4017C12.517 12.6792 12.6275 12.6312 12.709 12.5461C12.7905 12.461 12.8364 12.3456 12.8368 12.2252V11.5416Z" fill="#007871"/>
</g>
</g>
</svg>
