<svg width="25" height="27" viewBox="0 0 25 27" fill="none" xmlns="http://www.w3.org/2000/svg">
<g id="github" clip-path="url(#clip0_2_155)">
<path id="Vector" d="M9.44691 21C4.34053 22.6 4.34053 18.3333 2.29797 17.8M16.5958 24.2V20.072C16.6342 19.5634 16.5684 19.0521 16.4028 18.572C16.2373 18.092 15.9759 17.6543 15.6358 17.288C18.8427 16.9147 22.2129 15.6453 22.2129 9.82134C22.2126 8.33209 21.6641 6.89995 20.681 5.82134C21.1465 4.51841 21.1136 3.07824 20.589 1.8C20.589 1.8 19.3839 1.42667 16.5958 3.37867C14.2551 2.71608 11.7877 2.71608 9.44691 3.37867C6.65882 1.42667 5.45372 1.8 5.45372 1.8C4.92917 3.07824 4.89625 4.51841 5.3618 5.82134C4.37129 6.90795 3.82225 8.35303 3.82989 9.85334C3.82989 15.6347 7.2001 16.904 10.4069 17.32C10.0709 17.6826 9.81177 18.1151 9.64637 18.5893C9.48097 19.0634 9.41301 19.5686 9.44691 20.072V24.2" stroke="#007871" stroke-width="2" stroke-linecap="round" stroke-linejoin="round"/>
</g>
<defs>
<clipPath id="clip0_2_155">
<rect width="24.5106" height="25.6" fill="white" transform="translate(0.255371 0.733337)"/>
</clipPath>
</defs>
</svg>
