<svg width="25" height="27" viewBox="0 0 25 27" fill="none" xmlns="http://www.w3.org/2000/svg">
<g id="linkedin">
<path id="Vector" d="M16.5958 9.26666C18.221 9.26666 19.7796 9.94095 20.9287 11.1412C22.0779 12.3414 22.7235 13.9693 22.7235 15.6667V23.1333H18.6384V15.6667C18.6384 15.1009 18.4232 14.5582 18.0401 14.1582C17.657 13.7581 17.1375 13.5333 16.5958 13.5333C16.0541 13.5333 15.5345 13.7581 15.1515 14.1582C14.7684 14.5582 14.5532 15.1009 14.5532 15.6667V23.1333H10.4681V15.6667C10.4681 13.9693 11.1137 12.3414 12.2629 11.1412C13.412 9.94095 14.9706 9.26666 16.5958 9.26666Z" stroke="#007871" stroke-width="2" stroke-linecap="round" stroke-linejoin="round"/>
<path id="Vector_2" d="M6.38308 10.3333H2.29797V23.1333H6.38308V10.3333Z" stroke="#007871" stroke-width="2" stroke-linecap="round" stroke-linejoin="round"/>
<path id="Vector_3" d="M4.34053 7.13334C5.4686 7.13334 6.38308 6.17821 6.38308 5C6.38308 3.82179 5.4686 2.86667 4.34053 2.86667C3.21246 2.86667 2.29797 3.82179 2.29797 5C2.29797 6.17821 3.21246 7.13334 4.34053 7.13334Z" stroke="#007871" stroke-width="2" stroke-linecap="round" stroke-linejoin="round"/>
</g>
</svg>
