<svg width="105" height="105" viewBox="0 0 105 105" fill="none" xmlns="http://www.w3.org/2000/svg">
<g id="solar:planet-broken">
<g id="Group">
<path id="Vector" d="M35 22.1812C42.3539 17.9371 51 16.5109 59.3274 18.1684C67.6548 19.8259 75.0958 24.454 80.2641 31.1906C85.4324 37.9273 87.9757 46.313 87.42 54.7856C86.8643 63.2581 83.2476 71.2399 77.2438 77.2438C71.2399 83.2476 63.2581 86.8643 54.7856 87.42C46.313 87.9757 37.9273 85.4324 31.1906 80.2641C24.454 75.0958 19.8259 67.6548 18.1684 59.3274C16.5109 51 17.9371 42.3539 22.1812 35" stroke="white" stroke-width="1.5" stroke-linecap="round"/>
<path id="Vector_2" d="M60.5063 65.3012C36.7588 77.9581 13.9213 82.4819 9.49377 75.4075C7.16627 71.68 10.4169 65.4762 17.5 58.5812M78.0894 27.0812C86.8875 25.4625 93.3581 26.1625 95.5019 29.5881C98.9931 35.1662 89.9894 46.2875 74.375 56.945" stroke="white" stroke-width="1.5" stroke-linecap="round" stroke-linejoin="round"/>
</g>
</g>
</svg>
